<?xml version="1.0" encoding="UTF-8"?><svg id="Layer_1" xmlns="http://www.w3.org/2000/svg" xmlns:xlink="http://www.w3.org/1999/xlink" viewBox="0 0 102 21.5"><defs><style>.cls-1{fill:#fff;}.cls-2{clip-path:url(#clippath);}</style><clipPath id="clippath"><path class="cls-1" d="M22.7,1.2h0l-.2,.3-4.7,5.2h0l-2.4,2.7-2.8,3.1-3.9,4.3-.1,.1h0c-.5,.5-1.2,.9-2.1,.9h-.1c-1.5-.1-2.7-1.3-2.7-2.8,0-.5,.2-1,.4-1.5h0l2.4-3.9,.7-1.1,1-1.6,2-3.2h0l.1-.1h.1l2.5,2.8,.4,.5s0,.1,.1,.1c.3,.4,.8,.6,1.3,.6s1-.2,1.3-.6l.1-.1h0c.3-.3,.4-.7,.4-1.1,0-.5-.2-.9-.5-1.2l-2.9-3.3c-.7-.8-1.7-1.3-2.9-1.3-1.4,0-2.5,.7-3.2,1.8h0l-.5,1L1,11.5c-.7,1-1,2.2-1,3.5,0,2.6,1.5,4.8,3.7,5.9,.9,.4,1.8,.6,2.8,.6,2.1,0,3.9-1,5.1-2.4l6.2-7h0l2.4-2.7,2.5-2.8,2.5-2.8h.1s.1,0,.1,.1l.4,.7,1.5,2.5,1,1.6,3.1,4.9h0c.3,.4,.4,.9,.4,1.5,0,1.6-1.3,2.8-2.8,2.8-.8,0-1.5-.3-2-.9l-.1-.1-3.9-4.3-.8-.9h0c-.3-.4-.8-.6-1.4-.6-.5,0-.9,.2-1.3,.5l-.2,.2c-.2,.3-.4,.7-.4,1.1,0,.5,.2,.9,.5,1.2l4.6,5.2h0c1.2,1.4,2.9,2.2,4.9,2.2,3.6,0,6.5-2.9,6.5-6.5,0-1.3-.4-2.5-1-3.5L28.4,1.9h0c0-.1-.1-.1-.1-.2-.7-1-1.8-1.6-3-1.6-1,0-1.9,.4-2.6,1.1"/></clipPath></defs><g><path id="SVGID" class="cls-1" d="M22.7,1.2h0l-.2,.3-4.7,5.2h0l-2.4,2.7-2.8,3.1-3.9,4.3-.1,.1h0c-.5,.5-1.2,.9-2.1,.9h-.1c-1.5-.1-2.7-1.3-2.7-2.8,0-.5,.2-1,.4-1.5h0l2.4-3.9,.7-1.1,1-1.6,2-3.2h0l.1-.1h.1l2.5,2.8,.4,.5s0,.1,.1,.1c.3,.4,.8,.6,1.3,.6s1-.2,1.3-.6l.1-.1h0c.3-.3,.4-.7,.4-1.1,0-.5-.2-.9-.5-1.2l-2.9-3.3c-.7-.8-1.7-1.3-2.9-1.3-1.4,0-2.5,.7-3.2,1.8h0l-.5,1L1,11.5c-.7,1-1,2.2-1,3.5,0,2.6,1.5,4.8,3.7,5.9,.9,.4,1.8,.6,2.8,.6,2.1,0,3.9-1,5.1-2.4l6.2-7h0l2.4-2.7,2.5-2.8,2.5-2.8h.1s.1,0,.1,.1l.4,.7,1.5,2.5,1,1.6,3.1,4.9h0c.3,.4,.4,.9,.4,1.5,0,1.6-1.3,2.8-2.8,2.8-.8,0-1.5-.3-2-.9l-.1-.1-3.9-4.3-.8-.9h0c-.3-.4-.8-.6-1.4-.6-.5,0-.9,.2-1.3,.5l-.2,.2c-.2,.3-.4,.7-.4,1.1,0,.5,.2,.9,.5,1.2l4.6,5.2h0c1.2,1.4,2.9,2.2,4.9,2.2,3.6,0,6.5-2.9,6.5-6.5,0-1.3-.4-2.5-1-3.5L28.4,1.9h0c0-.1-.1-.1-.1-.2-.7-1-1.8-1.6-3-1.6-1,0-1.9,.4-2.6,1.1"/><g><path class="cls-1" d="M22.7,1.2h0l-.2,.3-4.7,5.2h0l-2.4,2.7-2.8,3.1-3.9,4.3-.1,.1h0c-.5,.5-1.2,.9-2.1,.9h-.1c-1.5-.1-2.7-1.3-2.7-2.8,0-.5,.2-1,.4-1.5h0l2.4-3.9,.7-1.1,1-1.6,2-3.2h0l.1-.1h.1l2.5,2.8,.4,.5s0,.1,.1,.1c.3,.4,.8,.6,1.3,.6s1-.2,1.3-.6l.1-.1h0c.3-.3,.4-.7,.4-1.1,0-.5-.2-.9-.5-1.2l-2.9-3.3c-.7-.8-1.7-1.3-2.9-1.3-1.4,0-2.5,.7-3.2,1.8h0l-.5,1L1,11.5c-.7,1-1,2.2-1,3.5,0,2.6,1.5,4.8,3.7,5.9,.9,.4,1.8,.6,2.8,.6,2.1,0,3.9-1,5.1-2.4l6.2-7h0l2.4-2.7,2.5-2.8,2.5-2.8h.1s.1,0,.1,.1l.4,.7,1.5,2.5,1,1.6,3.1,4.9h0c.3,.4,.4,.9,.4,1.5,0,1.6-1.3,2.8-2.8,2.8-.8,0-1.5-.3-2-.9l-.1-.1-3.9-4.3-.8-.9h0c-.3-.4-.8-.6-1.4-.6-.5,0-.9,.2-1.3,.5l-.2,.2c-.2,.3-.4,.7-.4,1.1,0,.5,.2,.9,.5,1.2l4.6,5.2h0c1.2,1.4,2.9,2.2,4.9,2.2,3.6,0,6.5-2.9,6.5-6.5,0-1.3-.4-2.5-1-3.5L28.4,1.9h0c0-.1-.1-.1-.1-.2-.7-1-1.8-1.6-3-1.6-1,0-1.9,.4-2.6,1.1"/><g class="cls-2"><rect class="cls-1" y=".1" width="35.6" height="21.4"/></g></g></g><g><path class="cls-1" d="M45.1,15.4l-2.6-4.6v5.9c0,.5-.4,.9-.9,.9s-.9-.4-.9-.9V7.3c0-.5,.4-.9,.9-.9,.4,0,.7,.2,.8,.5l3.5,6.2,3.5-6.2c.2-.3,.4-.5,.8-.5,.5,0,.9,.4,.9,.9v9.4c0,.5-.4,.9-.9,.9s-.9-.4-.9-.9v-5.9l-2.6,4.5c-.2,.3-.5,.5-.8,.5-.3,0-.6-.1-.8-.4"/><path class="cls-1" d="M53.7,12.1c0-3.9,1.9-5.7,5.2-5.7s5.2,1.9,5.2,5.7-1.9,5.7-5.2,5.7-5.2-1.9-5.2-5.7m1.9,0c0,2.7,1.1,4,3.2,4s3.2-1.3,3.2-4-1.1-4-3.2-4-3.2,1.3-3.2,4"/><path class="cls-1" d="M78.2,16.8c0,.5-.4,1-.9,1s-.9-.4-.9-1V7.5c0-.5,.4-.9,.9-.9s.9,.4,.9,.9v9.3Z"/><path class="cls-1" d="M80.8,12.1c0-3.9,1.9-5.7,5.2-5.7s5.2,1.9,5.2,5.7-1.9,5.7-5.2,5.7-5.2-1.9-5.2-5.7m1.9,0c0,2.7,1.1,4,3.2,4s3.2-1.3,3.2-4-1.1-4-3.2-4-3.2,1.3-3.2,4"/><path class="cls-1" d="M102,7.4v9.4c0,.5-.4,.9-.9,.9-.3,0-.6-.2-.8-.4l-4.8-6.9v6.4c0,.5-.4,.9-.9,.9s-.9-.4-.9-.9V7.4c0-.5,.4-.9,.9-.9,.3,0,.6,.1,.8,.4l4.8,7V7.5c0-.5,.4-.9,.9-.9,.5-.1,.9,.3,.9,.8"/><path class="cls-1" d="M73,6.5h-6.9c-.5,0-.8,.4-.8,.8s.4,.8,.8,.8h2.5v8.6c0,.5,.4,1,.9,1s.9-.4,.9-1V8.1h2.5c.5,0,.8-.4,.8-.8,.1-.4-.3-.8-.7-.8"/></g></svg>