<?xml version="1.0" encoding="utf-8"?>
<!-- Generator: Adobe Illustrator 26.3.0, SVG Export Plug-In . SVG Version: 6.00 Build 0)  -->
<svg version="1.1" id="Layer_1" xmlns="http://www.w3.org/2000/svg" xmlns:xlink="http://www.w3.org/1999/xlink" x="0px" y="0px"
	 viewBox="0 0 102 27" enable-background="new 0 0 102 27" xml:space="preserve">
<g>
	<g>
		<defs>
			<path id="SVGID_1_" d="M22.69,4.23L22.69,4.23l-0.23,0.26L17.8,9.67l0,0l-2.44,2.71l-2.81,3.13L8.69,19.8
				c-0.04,0.05-0.08,0.09-0.12,0.13l-0.01,0.01c-0.52,0.54-1.24,0.87-2.05,0.87c-0.04,0-0.07,0-0.11,0
				c-1.52-0.06-2.73-1.3-2.73-2.84c0-0.54,0.15-1.05,0.42-1.48l0.03-0.05l2.39-3.85l0.69-1.1l0.96-1.55l1.97-3.16h0
				c0.02-0.04,0.07-0.07,0.12-0.07c0.04,0,0.07,0.01,0.1,0.04l0.01,0.01l2.48,2.78l0.45,0.51c0.02,0.02,0.04,0.05,0.06,0.07
				c0.33,0.36,0.81,0.59,1.33,0.59c0.52,0,0.99-0.22,1.32-0.57l0.07-0.07c0,0,0.01-0.01,0.01-0.01c0.26-0.31,0.41-0.71,0.41-1.15
				c0-0.47-0.18-0.89-0.47-1.21L13.1,4.45c-0.68-0.81-1.71-1.33-2.85-1.33c-1.35,0-2.52,0.71-3.18,1.78h0L6.52,5.77l-5.49,8.69
				C0.38,15.48,0,16.68,0,17.98c0,2.58,1.5,4.82,3.68,5.87c0.86,0.41,1.82,0.65,2.83,0.65c2.05,0,3.88-0.95,5.07-2.42l6.21-6.96l0,0
				l2.44-2.73l2.53-2.83l2.47-2.77l0.01-0.01c0,0,0.01-0.01,0.01-0.01c0.03-0.03,0.06-0.04,0.1-0.04c0.05,0,0.09,0.03,0.12,0.06
				l0.44,0.7l1.53,2.47l0.96,1.55l3.08,4.95l0.03,0.05c0.26,0.43,0.42,0.94,0.42,1.48c0,1.57-1.27,2.84-2.84,2.84
				c-0.8,0-1.53-0.33-2.04-0.87c-0.05-0.05-0.09-0.1-0.13-0.15l-3.86-4.29l-0.82-0.91l0,0c-0.33-0.37-0.81-0.6-1.35-0.6
				c-0.5,0-0.94,0.2-1.27,0.52l-0.17,0.18c-0.24,0.31-0.39,0.7-0.39,1.12c0,0.47,0.18,0.9,0.47,1.23l4.63,5.19l0.03,0.04
				c1.19,1.36,2.94,2.21,4.89,2.21c3.6,0,6.52-2.92,6.52-6.52c0-1.29-0.38-2.5-1.03-3.51L28.53,4.9h0c-0.04-0.07-0.09-0.14-0.13-0.2
				c-0.68-0.95-1.79-1.58-3.05-1.58C24.31,3.12,23.37,3.55,22.69,4.23"/>
		</defs>
		<clipPath id="SVGID_00000169523488996202535830000012614625735301754514_">
			<use xlink:href="#SVGID_1_"  overflow="visible"/>
		</clipPath>
		
			<linearGradient id="SVGID_00000130626554091796365360000003175083966087465383_" gradientUnits="userSpaceOnUse" x1="-242.5046" y1="427.5763" x2="-241.8931" y2="427.5763" gradientTransform="matrix(58.2143 0 0 -58.2143 14117.2344 24904.8535)">
			<stop  offset="0" style="stop-color:#6CBD53"/>
			<stop  offset="1" style="stop-color:#2EBCB9"/>
		</linearGradient>
		
			<rect x="0" y="3.12" clip-path="url(#SVGID_00000169523488996202535830000012614625735301754514_)" fill="url(#SVGID_00000130626554091796365360000003175083966087465383_)" width="35.6" height="21.37"/>
	</g>
	<g>
		<path fill="#485B5C" d="M45.09,18.39l-2.56-4.55v5.93c0,0.51-0.42,0.93-0.93,0.93c-0.51,0-0.93-0.42-0.93-0.93V10.4
			c0-0.51,0.42-0.93,0.93-0.93c0.41,0,0.67,0.23,0.83,0.52l3.45,6.19l3.46-6.19c0.16-0.29,0.42-0.52,0.83-0.52
			c0.51,0,0.93,0.42,0.93,0.93v9.37c0,0.51-0.42,0.93-0.93,0.93c-0.51,0-0.93-0.42-0.93-0.93v-5.93l-2.56,4.55
			c-0.16,0.29-0.47,0.46-0.8,0.46C45.57,18.84,45.26,18.68,45.09,18.39"/>
		<path fill="#485B5C" d="M53.65,15.1c0-3.86,1.87-5.72,5.17-5.72c3.29,0,5.17,1.86,5.17,5.72c0,3.81-1.87,5.7-5.17,5.7
			C55.52,20.8,53.65,18.91,53.65,15.1 M55.6,15.1c0,2.69,1.06,4.01,3.21,4.01c2.15,0,3.21-1.32,3.21-4.01
			c0-2.71-1.06-4.03-3.21-4.03C56.66,11.07,55.6,12.39,55.6,15.1"/>
		<path fill="#485B5C" d="M78.22,19.76c0,0.52-0.42,0.95-0.95,0.95c-0.52,0-0.95-0.42-0.95-0.95v-9.34c0-0.52,0.42-0.95,0.95-0.95
			c0.52,0,0.95,0.42,0.95,0.95V19.76z"/>
		<path fill="#485B5C" d="M80.76,15.1c0-3.86,1.87-5.72,5.17-5.72c3.29,0,5.17,1.86,5.17,5.72c0,3.81-1.87,5.7-5.17,5.7
			C82.64,20.8,80.76,18.91,80.76,15.1 M82.72,15.1c0,2.69,1.06,4.01,3.21,4.01c2.15,0,3.21-1.32,3.21-4.01
			c0-2.71-1.06-4.03-3.21-4.03C83.78,11.07,82.72,12.39,82.72,15.1"/>
		<path fill="#485B5C" d="M102,10.4v9.37c0,0.51-0.42,0.93-0.93,0.93c-0.31,0-0.6-0.16-0.77-0.41l-4.81-6.94v6.42
			c0,0.51-0.42,0.93-0.93,0.93s-0.93-0.42-0.93-0.93V10.4c0-0.51,0.42-0.93,0.93-0.93c0.33,0,0.59,0.15,0.75,0.39l4.82,6.99V10.4
			c0-0.51,0.42-0.93,0.93-0.93C101.58,9.47,102,9.9,102,10.4"/>
		<path fill="#485B5C" d="M72.96,9.47h-6.88c-0.46,0-0.83,0.37-0.83,0.83c0,0.46,0.37,0.83,0.83,0.83h2.49v8.49v0.13
			c0,0.52,0.42,0.95,0.94,0.95s0.95-0.42,0.95-0.95v-0.13v-8.49h2.49c0.46,0,0.83-0.37,0.83-0.83C73.79,9.85,73.42,9.47,72.96,9.47"
			/>
	</g>
</g>
</svg>
